# xmcd
#
# Track frame offsets:
#	150
#	11716
#	24027
#	34872
#	48575
#	62515
#	74168
#	86767
#	100805
#	113605
#	126123
#	137948
#	151971
#	161852
#	174691
#	186829
#	199607
#	212872
#	225269
#	238125
#
# Disc length: 3334 seconds
#
# Revision: 1
# Processed by: cddbd v1.5.2PL0 Copyright (c) Steve Scherf et al.
# Submitted via: audiograbber 1.83.01
#
DISCID=170d0414
DTITLE=Various Artist - Country Greats Vol 20
DYEAR=2002
DGENRE=Older Country
TTITLE0=Bill Monroe - Orange Blossom Special
TTITLE1=Ernest Tubb - Filipino Baby
TTITLE2=Gene Autry - You Are My Sunshine
TTITLE3=Jimmie Rodgers - Blue Yodel Number Four
TTITLE4=Hank Snow - The Blue Velvet Band
TTITLE5=Ray Acuff - Wabash Cannonball
TTITLE6=Tex Ritter - Jingle! Jangle! Jingle!
TTITLE7=The Carter Family - Can The Circle Be Unbroken (Bye and Bye)
TTITLE8=Sons Of the Pioneers - Have I Told You Lately That I Love You
TTITLE9=Jack Guthrie - Oklahoma Hills
TTITLE10=Bob Wills and His Texas Playboys - New San Antonio Rose
TTITLE11=Patsy Montana and The Prairie Cowboys - I Wanna Be A Cowboy's Sweetheart
TTITLE12=Eddy Arnold - Cattle Call
TTITLE13=Wilf Carter - My Queen Of The Prairies
TTITLE14=Ted Daffin and His Texans - Born To Lose
TTITLE15=Spade Cooley - Shame On You
TTITLE16=Merle Travis - So Round, So Firm, So Fully Packed
TTITLE17=Jimmie Rodgers - Waiting For A Train
TTITLE18=Ernest Tubb - Have You Ever Been Lonely
TTITLE19=Gene Autry - Back In The Saddle Again
EXTD=20 cd set
EXTT0=
EXTT1=
EXTT2=
EXTT3=
EXTT4=
EXTT5=
EXTT6=
EXTT7=
EXTT8=
EXTT9=
EXTT10=
EXTT11=
EXTT12=
EXTT13=
EXTT14=
EXTT15=
EXTT16=
EXTT17=
EXTT18=
EXTT19=
PLAYORDER=
